<svg viewBox="0 0 457 144" xmlns="http://www.w3.org/2000/svg" xmlns:xlink="http://www.w3.org/1999/xlink" id="Layer_1" xml:space="preserve" overflow="hidden"><g><g><linearGradient x1="-412.5" y1="-719" x2="-412.5" y2="-720" gradientUnits="userSpaceOnUse" id="SVGID_1_"><stop offset="0" stop-color="#656565"/><stop offset="0.618" stop-color="#1B1B1B"/><stop offset="0.6292" stop-color="#545454"/><stop offset="0.9831" stop-color="#3E3E3E"/></linearGradient><g id="OPTION_04"><g id="XMLID_21_"><g><g id="XMLID_00000045594098500811841010000008534962701425752990_"><path d="M2163.9 94 1737.1 94C1741.6 79 1749.2 66.6 1759.1 55.7 1765.5 48.6 1772.9 42.5 1781 37.4 1796.7 27.7 1815.2 22 1835 22L2066 22C2085.8 22 2104.3 27.7 2120 37.4 2128.1 42.4 2135.5 48.6 2141.9 55.7 2151.9 66.6 2159.4 79 2163.9 94Z" id="XMLID_00000127046291348930445060000014177834162999644580_" fill="#0D6980"/></g><g id="XMLID_00000110453883019278350420000010953313061202448061_"><path d="M2120.1 37.4C2113.6 61 2098.5 80.9 2078.4 93.8 2063.2 103.6 2045 109 2025.6 109L1875.5 109C1856.1 109 1838 103.6 1822.7 93.8 1802.6 80.9 1787.5 60.9 1781 37.3 1796.7 27.6 1815.2 22 1835 22L2066 22C2085.8 22 2104.4 27.7 2120.1 37.4Z" id="XMLID_00000106111177663942635080000004761306728904929159_" fill="#0D6980"/></g></g></g><g id="XMLID_3_"><g id="XMLID_935_"><text fill="#FFFFFF" font-family="Montserrat-Bold" font-size="28.1764" transform="translate(1848.99 73.0568)">INFOGRAPHIC</text></g></g></g><g id="OPTION_03"><g id="XMLID_279_"><g><g id="XMLID_00000017496956312093145350000006444621623725173154_"><path d="M1592.9 94 1166.1 94C1170.6 79 1178.2 66.6 1188.1 55.7 1194.5 48.6 1201.9 42.5 1210 37.4 1225.7 27.7 1244.2 22 1264 22L1495 22C1514.8 22 1533.3 27.7 1549 37.4 1557.1 42.4 1564.5 48.6 1570.9 55.7 1580.9 66.6 1588.4 79 1592.9 94Z" id="XMLID_00000008113689973098827730000009856317223077976761_" fill="#0789F9"/></g><g id="XMLID_00000062186834667724983650000012326395595454384536_"><path d="M1549.1 37.4C1542.6 61 1527.5 80.9 1507.4 93.8 1492.2 103.6 1474 109 1454.6 109L1304.5 109C1285.1 109 1267 103.6 1251.7 93.8 1231.6 80.9 1216.5 60.9 1210 37.3 1225.7 27.6 1244.2 22 1264 22L1495 22C1514.8 22 1533.4 27.7 1549.1 37.4Z" id="XMLID_00000003084342338679896090000001300547735658888582_" fill="#0789F9"/></g></g></g><g id="XMLID_11_"><g id="XMLID_234_"><text fill="#FFFFFF" font-family="Montserrat-Bold" font-size="28.1764" transform="translate(1277.99 73.0568)">INFOGRAPHIC</text></g></g></g><g id="OPTION_02"><g id="XMLID_427_"><g><g id="XMLID_00000177452958186534269470000004747625378116315268_"><path d="M1020.9 94 594.1 94C598.6 79 606.2 66.6 616.1 55.7 622.5 48.6 629.9 42.5 638 37.4 653.7 27.7 672.2 22 692 22L923 22C942.8 22 961.3 27.7 977 37.4 985.1 42.4 992.5 48.6 998.9 55.7 1008.9 66.6 1016.4 79 1020.9 94Z" id="XMLID_00000033336442162543661880000002029524627704128696_" fill="#60D1CB"/></g><g id="XMLID_00000163066013737450475430000012071118259328797832_"><path d="M977.1 37.4C970.6 61 955.5 80.9 935.4 93.8 920.2 103.6 902 109 882.6 109L732.4 109C713 109 694.9 103.6 679.6 93.8 659.5 80.9 644.4 60.9 637.9 37.3 653.6 27.6 672.1 22 691.9 22L922.9 22C942.8 22 961.4 27.7 977.1 37.4Z" id="XMLID_00000133487376552574909740000001197556775675368088_" fill="#60D1CB"/></g></g></g></g><g id="OPTION_01"><g id="XMLID_547_"><g><g id="XMLID_00000132046667219783628250000000664070737449993907_"><linearGradient x1="20.0901" y1="58.0611" x2="446.91" y2="58.0611" gradientUnits="userSpaceOnUse" id="SVGID_00000059312225232403203650000012625040873592690346_"><stop offset="0" stop-color="#E60000"/><stop offset="1" stop-color="#BD0000"/></linearGradient><path d="M446.9 94.1 20.1 94.1C24.6 79.1 32.2 66.7 42.1 55.7 48.5 48.6 55.9 42.5 64 37.4 79.7 27.7 98.2 22 118 22L349 22C368.8 22 387.3 27.6 403 37.4 411.1 42.4 418.5 48.6 424.9 55.7 434.9 66.6 442.4 79.1 446.9 94.1Z" fill="url(#SVGID_00000059312225232403203650000012625040873592690346_)"/></g><g id="XMLID_00000023995086012138410110000018022179453639414974_"><linearGradient x1="63.95" y1="65.7761" x2="403.05" y2="65.7761" gradientUnits="userSpaceOnUse" id="SVGID_00000023959884198169094990000008168243803247373503_"><stop offset="0" stop-color="#E60000"/><stop offset="1" stop-color="#BD0000"/></linearGradient><path d="M403.1 37.4C396.6 61 381.5 81.1 361.4 94 346.2 103.8 328 109.4 308.6 109.4L158.4 109.4C139 109.4 120.9 103.7 105.6 94 85.5 81.1 70.4 61 63.9 37.4 79.6 27.7 98.1 22 117.9 22L348.9 22C368.8 22.1 387.4 27.7 403.1 37.4Z" fill="url(#SVGID_00000023959884198169094990000008168243803247373503_)"/></g></g></g></g></g></g></svg>